STARTFONT 2.1
FONT -Monotype-Times New Roman-Regular-I-Normal--17-120-100-100-P-90-iso8859-5
SIZE 12 100 100
FONTBOUNDINGBOX 21 19 -2 -4

STARTPROPERTIES 24
FOUNDRY "Monotype"
FAMILY_NAME "Times New Roman"
WEIGHT_NAME "Regular"
SLANT "I"
SETWIDTH_NAME "Normal"
ADD_STYLE_NAME ""
PIXEL_SIZE 17
POINT_SIZE 120
RESOLUTION_X 100
RESOLUTION_Y 100
SPACING "P"
AVERAGE_WIDTH 90
CHARSET_REGISTRY "iso8859"
CHARSET_ENCODING "5"
FACE_NAME "Times New Roman Inclined ISO Latin Cyrillic"
_DEC_DEVICE_FONTNAMES "PS=timesnewroman-in-latcyrillic"
COPYRIGHT "Copyright (c) 1994 Monotype Typography Ltd."
CAP_HEIGHT 13
X_HEIGHT 9
WEIGHT 10
QUAD_WIDTH 11
DEFAULT_CHAR 160
FONT_DESCENT 4
FONT_ASCENT 16
ENDPROPERTIES

CHARS 191

STARTCHAR space
ENCODING 32
SWIDTH 250 0
DWIDTH 4 0
BBX 0 0 0 0
BITMAP
ENDCHAR

STARTCHAR exclam
ENCODING 33
SWIDTH 271 0
DWIDTH 5 0
BBX 4 12 0 0
BITMAP
30
30
30
20
60
60
60
40
40
00
C0
C0
ENDCHAR

STARTCHAR quotedbl
ENCODING 34
SWIDTH 417 0
DWIDTH 7 0
BBX 5 5 1 7
BITMAP
D8
D8
D8
48
48
ENDCHAR

STARTCHAR numbersign
ENCODING 35
SWIDTH 667 0
DWIDTH 11 0
BBX 10 11 1 -1
BITMAP
1080
1080
1080
FFC0
2100
2100
2100
FFC0
4200
4200
4200
ENDCHAR

STARTCHAR dollar
ENCODING 36
SWIDTH 500 0
DWIDTH 9 0
BBX 8 14 0 -1
BITMAP
02
0E
35
35
34
34
18
1C
0E
16
96
94
78
20
ENDCHAR

STARTCHAR percent
ENCODING 37
SWIDTH 823 0
DWIDTH 14 0
BBX 13 12 0 0
BITMAP
3008
5810
9820
9840
9880
9130
6658
0898
1098
2098
4090
8060
ENDCHAR

STARTCHAR ampersand
ENCODING 38
SWIDTH 719 0
DWIDTH 12 0
BBX 11 12 0 0
BITMAP
0300
0580
0D80
0D00
0E00
1C00
6CE0
6640
C680
C300
E3A0
3CC0
ENDCHAR

STARTCHAR quoteright
ENCODING 39
SWIDTH 271 0
DWIDTH 5 0
BBX 2 4 2 8
BITMAP
40
C0
40
80
ENDCHAR

STARTCHAR parenleft
ENCODING 40
SWIDTH 500 0
DWIDTH 9 0
BBX 6 15 2 -3
BITMAP
04
08
10
20
60
60
C0
C0
C0
C0
C0
C0
C0
40
20
ENDCHAR

STARTCHAR parenright
ENCODING 41
SWIDTH 500 0
DWIDTH 9 0
BBX 6 15 0 -3
BITMAP
10
08
0C
0C
0C
0C
0C
0C
0C
18
18
10
20
40
80
ENDCHAR

STARTCHAR asterisk
ENCODING 42
SWIDTH 500 0
DWIDTH 9 0
BBX 7 6 2 6
BITMAP
10
D6
38
38
D6
10
ENDCHAR

STARTCHAR plus
ENCODING 43
SWIDTH 667 0
DWIDTH 11 0
BBX 9 9 1 0
BITMAP
0800
0800
0800
0800
FF80
0800
0800
0800
0800
ENDCHAR

STARTCHAR comma
ENCODING 44
SWIDTH 266 0
DWIDTH 5 0
BBX 2 4 1 -2
BITMAP
40
C0
40
80
ENDCHAR

STARTCHAR minus
ENCODING 45
SWIDTH 667 0
DWIDTH 11 0
BBX 9 1 1 4
BITMAP
FF80
ENDCHAR

STARTCHAR period
ENCODING 46
SWIDTH 271 0
DWIDTH 5 0
BBX 2 2 0 0
BITMAP
C0
C0
ENDCHAR

STARTCHAR slash
ENCODING 47
SWIDTH 281 0
DWIDTH 5 0
BBX 7 13 -1 -1
BITMAP
02
02
04
04
08
08
10
10
20
20
40
40
80
ENDCHAR

STARTCHAR zero
ENCODING 48
SWIDTH 500 0
DWIDTH 9 0
BBX 7 12 1 0
BITMAP
1C
26
66
66
C6
C6
C6
C6
CC
CC
C8
70
ENDCHAR

STARTCHAR one
ENCODING 49
SWIDTH 500 0
DWIDTH 9 0
BBX 5 12 1 0
BITMAP
08
38
18
18
30
30
30
30
60
60
60
F0
ENDCHAR

STARTCHAR two
ENCODING 50
SWIDTH 500 0
DWIDTH 9 0
BBX 8 12 0 0
BITMAP
0E
1F
23
03
03
02
04
08
10
22
7E
FC
ENDCHAR

STARTCHAR three
ENCODING 51
SWIDTH 500 0
DWIDTH 9 0
BBX 7 12 1 0
BITMAP
1C
26
06
06
04
38
1C
0C
0C
0C
88
F0
ENDCHAR

STARTCHAR four
ENCODING 52
SWIDTH 500 0
DWIDTH 9 0
BBX 8 12 0 0
BITMAP
01
03
07
0B
16
26
46
FF
FF
0C
0C
0C
ENDCHAR

STARTCHAR five
ENCODING 53
SWIDTH 500 0
DWIDTH 9 0
BBX 8 12 0 0
BITMAP
0F
08
10
3C
3E
06
06
06
02
04
C8
F0
ENDCHAR

STARTCHAR six
ENCODING 54
SWIDTH 500 0
DWIDTH 9 0
BBX 8 12 1 0
BITMAP
03
04
18
30
7C
66
C6
C6
C6
C4
C8
70
ENDCHAR

STARTCHAR seven
ENCODING 55
SWIDTH 500 0
DWIDTH 9 0
BBX 8 12 1 0
BITMAP
7F
7E
84
04
08
08
10
10
20
20
40
40
ENDCHAR

STARTCHAR eight
ENCODING 56
SWIDTH 500 0
DWIDTH 9 0
BBX 7 12 1 0
BITMAP
1C
36
66
66
34
38
58
CC
CC
CC
D8
70
ENDCHAR

STARTCHAR nine
ENCODING 57
SWIDTH 500 0
DWIDTH 9 0
BBX 8 12 0 0
BITMAP
0E
13
23
63
63
63
66
3E
0C
18
20
C0
ENDCHAR

STARTCHAR colon
ENCODING 58
SWIDTH 333 0
DWIDTH 6 0
BBX 3 8 1 0
BITMAP
60
60
00
00
00
00
C0
C0
ENDCHAR

STARTCHAR semicolon
ENCODING 59
SWIDTH 333 0
DWIDTH 6 0
BBX 3 10 1 -2
BITMAP
60
60
00
00
00
00
40
C0
40
80
ENDCHAR

STARTCHAR less
ENCODING 60
SWIDTH 667 0
DWIDTH 11 0
BBX 9 9 1 0
BITMAP
0080
0300
0C00
3000
C000
3000
0C00
0300
0080
ENDCHAR

STARTCHAR equal
ENCODING 61
SWIDTH 667 0
DWIDTH 11 0
BBX 9 5 1 2
BITMAP
FF80
0000
0000
0000
FF80
ENDCHAR

STARTCHAR greater
ENCODING 62
SWIDTH 667 0
DWIDTH 11 0
BBX 9 9 1 0
BITMAP
8000
6000
1800
0600
0180
0600
1800
6000
8000
ENDCHAR

STARTCHAR question
ENCODING 63
SWIDTH 385 0
DWIDTH 7 0
BBX 6 12 1 0
BITMAP
38
6C
6C
0C
08
10
20
40
40
00
C0
C0
ENDCHAR

STARTCHAR at
ENCODING 64
SWIDTH 917 0
DWIDTH 16 0
BBX 14 16 1 -4
BITMAP
07E0
1810
2008
2004
43A4
46C4
8CC4
8CC4
98C4
9988
9B90
4DE4
4004
2008
1870
0780
ENDCHAR

STARTCHAR A
ENCODING 65
SWIDTH 719 0
DWIDTH 12 0
BBX 12 12 -1 0
BITMAP
0020
0060
00E0
0160
0260
0260
0460
0FE0
1060
2060
4060
E0F0
ENDCHAR

STARTCHAR B
ENCODING 66
SWIDTH 667 0
DWIDTH 11 0
BBX 10 12 0 0
BITMAP
3F80
18C0
18C0
18C0
3180
3E00
3300
3180
6180
6180
6300
FE00
ENDCHAR

STARTCHAR C
ENCODING 67
SWIDTH 719 0
DWIDTH 12 0
BBX 11 12 1 0
BITMAP
07A0
1840
3040
6000
6000
C000
C000
C000
C000
C080
6100
3E00
ENDCHAR

STARTCHAR D
ENCODING 68
SWIDTH 771 0
DWIDTH 13 0
BBX 12 12 0 0
BITMAP
3FC0
1860
1830
1830
3030
3030
3030
3060
6060
60C0
6180
FE00
ENDCHAR

STARTCHAR E
ENCODING 69
SWIDTH 667 0
DWIDTH 11 0
BBX 11 12 0 0
BITMAP
3FE0
1820
1820
1800
3100
3F00
3100
3000
6000
6040
6080
FF80
ENDCHAR

STARTCHAR F
ENCODING 70
SWIDTH 604 0
DWIDTH 10 0
BBX 10 12 0 0
BITMAP
3FC0
1840
1840
1800
3100
3F00
3100
3000
6000
6000
6000
F000
ENDCHAR

STARTCHAR G
ENCODING 71
SWIDTH 719 0
DWIDTH 12 0
BBX 11 12 1 0
BITMAP
07A0
1840
3040
6000
6000
C000
C3C0
C180
C180
C180
6300
3E00
ENDCHAR

STARTCHAR H
ENCODING 72
SWIDTH 823 0
DWIDTH 14 0
BBX 14 12 0 0
BITMAP
3C3C
1818
1818
1818
3030
3FF0
3030
3030
6060
6060
6060
F0F0
ENDCHAR

STARTCHAR I
ENCODING 73
SWIDTH 385 0
DWIDTH 7 0
BBX 6 12 0 0
BITMAP
3C
18
18
18
30
30
30
30
60
60
60
F0
ENDCHAR

STARTCHAR J
ENCODING 74
SWIDTH 500 0
DWIDTH 9 0
BBX 9 12 0 0
BITMAP
0780
0300
0300
0300
0600
0600
0600
0600
0C00
CC00
C800
7000
ENDCHAR

STARTCHAR K
ENCODING 75
SWIDTH 719 0
DWIDTH 12 0
BBX 12 12 0 0
BITMAP
3CF0
1840
1880
1900
3200
3C00
3600
3300
6300
6180
60C0
F9F0
ENDCHAR

STARTCHAR L
ENCODING 76
SWIDTH 667 0
DWIDTH 11 0
BBX 10 12 0 0
BITMAP
3C00
1800
1800
1800
3000
3000
3000
3000
6000
6040
6080
FF80
ENDCHAR

STARTCHAR M
ENCODING 77
SWIDTH 990 0
DWIDTH 17 0
BBX 17 12 0 0
BITMAP
380380
180700
1C0B00
1C1300
2C1600
262600
264600
264600
468C00
438C00
430C00
E11E00
ENDCHAR

STARTCHAR N
ENCODING 78
SWIDTH 771 0
DWIDTH 13 0
BBX 13 12 0 0
BITMAP
3838
1C10
1C10
1610
2620
2320
21A0
21A0
40C0
40C0
4040
E040
ENDCHAR

STARTCHAR O
ENCODING 79
SWIDTH 771 0
DWIDTH 13 0
BBX 11 12 1 0
BITMAP
0780
18C0
3060
6060
6060
C060
C060
C0C0
C0C0
C180
6300
3C00
ENDCHAR

STARTCHAR P
ENCODING 80
SWIDTH 667 0
DWIDTH 11 0
BBX 10 12 0 0
BITMAP
3F80
18C0
18C0
18C0
3180
3F00
3000
3000
6000
6000
6000
F000
ENDCHAR

STARTCHAR Q
ENCODING 81
SWIDTH 771 0
DWIDTH 13 0
BBX 11 15 1 -3
BITMAP
0780
18C0
3060
6060
6060
C060
C060
C0C0
C0C0
C180
6300
3C00
2000
7E40
8F80
ENDCHAR

STARTCHAR R
ENCODING 82
SWIDTH 719 0
DWIDTH 12 0
BBX 11 12 0 0
BITMAP
3F80
18C0
18C0
18C0
3180
3E00
3300
3300
6180
6180
60C0
F1E0
ENDCHAR

STARTCHAR S
ENCODING 83
SWIDTH 604 0
DWIDTH 10 0
BBX 10 12 0 0
BITMAP
0F40
1080
3080
3080
3800
1C00
0E00
0700
4300
4300
4200
BC00
ENDCHAR

STARTCHAR T
ENCODING 84
SWIDTH 667 0
DWIDTH 11 0
BBX 10 12 1 0
BITMAP
7FC0
8C40
8C40
0C00
1800
1800
1800
1800
3000
3000
3000
7800
ENDCHAR

STARTCHAR U
ENCODING 85
SWIDTH 771 0
DWIDTH 13 0
BBX 12 12 1 0
BITMAP
7870
3020
3020
3020
6040
6040
6040
C040
C080
C080
6100
3E00
ENDCHAR

STARTCHAR V
ENCODING 86
SWIDTH 719 0
DWIDTH 12 0
BBX 11 12 2 0
BITMAP
F0E0
6040
6080
6100
6200
6200
6400
6800
7000
6000
4000
4000
ENDCHAR

STARTCHAR W
ENCODING 87
SWIDTH 990 0
DWIDTH 17 0
BBX 16 12 2 0
BITMAP
F3C7
6182
6184
6188
6388
6590
69A0
69A0
71C0
6180
4100
4100
ENDCHAR

STARTCHAR X
ENCODING 88
SWIDTH 719 0
DWIDTH 12 0
BBX 12 12 0 0
BITMAP
3C70
1820
1840
0C80
0D00
0600
0600
0B00
1300
2180
4180
E3C0
ENDCHAR

STARTCHAR Y
ENCODING 89
SWIDTH 719 0
DWIDTH 12 0
BBX 10 12 2 0
BITMAP
F1C0
6080
6100
6200
3400
3800
3000
3000
6000
6000
6000
F000
ENDCHAR

STARTCHAR Z
ENCODING 90
SWIDTH 719 0
DWIDTH 12 0
BBX 13 12 -1 0
BITMAP
0FF8
0830
1060
00C0
0180
0300
0600
0C00
1800
3020
6040
FFC0
ENDCHAR

STARTCHAR bracketleft
ENCODING 91
SWIDTH 500 0
DWIDTH 9 0
BBX 7 16 1 -4
BITMAP
1E
18
18
18
30
30
30
30
60
60
60
60
C0
C0
C0
F0
ENDCHAR

STARTCHAR backslash
ENCODING 92
SWIDTH 281 0
DWIDTH 5 0
BBX 7 13 -1 -1
BITMAP
80
40
40
20
20
10
10
08
08
04
04
02
02
ENDCHAR

STARTCHAR bracketright
ENCODING 93
SWIDTH 500 0
DWIDTH 9 0
BBX 7 16 0 -4
BITMAP
1E
06
06
06
0C
0C
0C
0C
18
18
18
18
30
30
30
F0
ENDCHAR

STARTCHAR asciicircum
ENCODING 94
SWIDTH 583 0
DWIDTH 7 0
BBX 7 6 0 6
BITMAP
10
10
28
44
44
82
ENDCHAR

STARTCHAR underscore
ENCODING 95
SWIDTH 500 0
DWIDTH 9 0
BBX 9 1 0 -2
BITMAP
FF80
ENDCHAR

STARTCHAR quoteleft
ENCODING 96
SWIDTH 271 0
DWIDTH 5 0
BBX 2 4 2 8
BITMAP
40
80
C0
80
ENDCHAR

STARTCHAR a
ENCODING 97
SWIDTH 500 0
DWIDTH 9 0
BBX 7 8 1 0
BITMAP
0E
36
66
66
CC
CC
DC
6E
ENDCHAR

STARTCHAR b
ENCODING 98
SWIDTH 500 0
DWIDTH 9 0
BBX 7 12 1 0
BITMAP
70
30
30
30
6C
76
66
66
C6
C4
C8
70
ENDCHAR

STARTCHAR c
ENCODING 99
SWIDTH 438 0
DWIDTH 7 0
BBX 6 8 1 0
BITMAP
18
2C
4C
C0
C0
C0
C8
70
ENDCHAR

STARTCHAR d
ENCODING 100
SWIDTH 500 0
DWIDTH 9 0
BBX 8 12 1 0
BITMAP
07
03
03
03
16
2E
66
C6
CC
CC
DC
6E
ENDCHAR

STARTCHAR e
ENCODING 101
SWIDTH 438 0
DWIDTH 7 0
BBX 6 8 1 0
BITMAP
18
2C
4C
F8
C0
C0
C8
70
ENDCHAR

STARTCHAR f
ENCODING 102
SWIDTH 333 0
DWIDTH 6 0
BBX 10 16 -2 -4
BITMAP
01C0
0340
0600
0600
1F00
0C00
0C00
0C00
1800
1800
1800
1800
3000
3000
A000
C000
ENDCHAR

STARTCHAR g
ENCODING 103
SWIDTH 500 0
DWIDTH 9 0
BBX 9 11 0 -3
BITMAP
1C00
2780
6600
6600
6400
3800
2000
7C00
C600
C600
7C00
ENDCHAR

STARTCHAR h
ENCODING 104
SWIDTH 500 0
DWIDTH 9 0
BBX 8 12 0 0
BITMAP
70
30
30
30
66
6B
73
63
C6
C6
C6
C7
ENDCHAR

STARTCHAR i
ENCODING 105
SWIDTH 271 0
DWIDTH 5 0
BBX 4 11 1 0
BITMAP
30
30
00
E0
60
60
60
C0
C0
C0
E0
ENDCHAR

STARTCHAR j
ENCODING 106
SWIDTH 271 0
DWIDTH 5 0
BBX 7 15 -2 -4
BITMAP
06
06
00
1C
0C
0C
0C
18
18
18
18
30
30
A0
C0
ENDCHAR

STARTCHAR k
ENCODING 107
SWIDTH 531 0
DWIDTH 9 0
BBX 8 12 0 0
BITMAP
70
30
30
30
67
64
68
70
D8
CC
CD
C6
ENDCHAR

STARTCHAR l
ENCODING 108
SWIDTH 271 0
DWIDTH 5 0
BBX 4 12 1 0
BITMAP
70
30
30
30
60
60
60
60
C0
C0
C0
E0
ENDCHAR

STARTCHAR m
ENCODING 109
SWIDTH 771 0
DWIDTH 13 0
BBX 13 8 0 0
BITMAP
E630
6B58
7398
6318
C630
C630
C630
C638
ENDCHAR

STARTCHAR n
ENCODING 110
SWIDTH 500 0
DWIDTH 8 0
BBX 8 8 0 0
BITMAP
E6
6B
73
63
C6
C6
C6
C7
ENDCHAR

STARTCHAR o
ENCODING 111
SWIDTH 500 0
DWIDTH 9 0
BBX 7 8 1 0
BITMAP
1C
26
46
C6
C6
C4
C8
70
ENDCHAR

STARTCHAR p
ENCODING 112
SWIDTH 500 0
DWIDTH 9 0
BBX 9 11 -1 -3
BITMAP
3B00
1D80
1980
1980
3180
3100
3200
3C00
6000
6000
F000
ENDCHAR

STARTCHAR q
ENCODING 113
SWIDTH 500 0
DWIDTH 9 0
BBX 7 11 1 -3
BITMAP
1E
26
46
C6
CC
CC
DC
6C
18
18
3C
ENDCHAR

STARTCHAR r
ENCODING 114
SWIDTH 385 0
DWIDTH 7 0
BBX 6 8 1 0
BITMAP
EC
74
60
60
C0
C0
C0
C0
ENDCHAR

STARTCHAR s
ENCODING 115
SWIDTH 385 0
DWIDTH 7 0
BBX 7 8 0 0
BITMAP
3A
64
64
30
18
4C
4C
B8
ENDCHAR

STARTCHAR t
ENCODING 116
SWIDTH 333 0
DWIDTH 6 0
BBX 4 10 1 0
BITMAP
10
20
F0
60
60
60
C0
C0
D0
60
ENDCHAR

STARTCHAR u
ENCODING 117
SWIDTH 500 0
DWIDTH 8 0
BBX 8 8 0 0
BITMAP
E3
63
63
63
C6
CE
D6
67
ENDCHAR

STARTCHAR v
ENCODING 118
SWIDTH 438 0
DWIDTH 7 0
BBX 7 8 0 0
BITMAP
26
E6
62
64
68
70
60
40
ENDCHAR

STARTCHAR w
ENCODING 119
SWIDTH 667 0
DWIDTH 11 0
BBX 11 8 0 0
BITMAP
2660
E660
6620
6640
6E80
7700
6600
4400
ENDCHAR

STARTCHAR x
ENCODING 120
SWIDTH 552 0
DWIDTH 9 0
BBX 10 8 -1 0
BITMAP
08C0
3940
1A00
0C00
0C00
1600
A680
C300
ENDCHAR

STARTCHAR y
ENCODING 121
SWIDTH 500 0
DWIDTH 9 0
BBX 9 12 -1 -4
BITMAP
0980
3980
1880
1880
1900
1A00
1A00
1C00
1800
1000
A000
C000
ENDCHAR

STARTCHAR z
ENCODING 122
SWIDTH 438 0
DWIDTH 7 0
BBX 8 8 -1 0
BITMAP
1F
3E
24
08
10
22
7E
FC
ENDCHAR

STARTCHAR braceleft
ENCODING 123
SWIDTH 479 0
DWIDTH 8 0
BBX 5 15 2 -3
BITMAP
18
20
60
60
60
60
40
80
40
60
60
60
60
20
18
ENDCHAR

STARTCHAR bar
ENCODING 124
SWIDTH 271 0
DWIDTH 5 0
BBX 1 14 2 -2
BITMAP
80
80
80
80
80
80
80
80
80
80
80
80
80
80
ENDCHAR

STARTCHAR braceright
ENCODING 125
SWIDTH 479 0
DWIDTH 8 0
BBX 5 15 1 -3
BITMAP
C0
20
30
30
30
30
10
08
10
30
30
30
30
20
C0
ENDCHAR

STARTCHAR asciitilde
ENCODING 126
SWIDTH 667 0
DWIDTH 9 0
BBX 9 3 0 3
BITMAP
3080
7F00
8600
ENDCHAR

STARTCHAR space
ENCODING 160
SWIDTH 250 0
DWIDTH 5 0
BBX 0 0 0 0
BITMAP
ENDCHAR

STARTCHAR afii10023
ENCODING 161
SWIDTH 667 0
DWIDTH 11 0
BBX 11 14 0 0
BITMAP
0240
0000
3FE0
1820
1820
1800
3100
3F00
3100
3000
6000
6040
6080
FF80
ENDCHAR

STARTCHAR afii10051
ENCODING 162
SWIDTH 809 0
DWIDTH 14 0
BBX 13 12 0 0
BITMAP
3FF0
4610
8610
0600
0CF0
0D18
0E18
0C18
1818
1830
1860
3D80
ENDCHAR

STARTCHAR afii10052
ENCODING 163
SWIDTH 631 0
DWIDTH 11 0
BBX 11 15 0 0
BITMAP
0080
0100
0000
3FE0
1820
1820
1800
3000
3000
3000
3000
6000
6000
6000
F000
ENDCHAR

STARTCHAR afii10053
ENCODING 164
SWIDTH 719 0
DWIDTH 12 0
BBX 11 12 1 0
BITMAP
07A0
1840
3040
6000
C000
FC00
C000
C000
C000
6080
3100
1E00
ENDCHAR

STARTCHAR afii10054
ENCODING 165
SWIDTH 604 0
DWIDTH 10 0
BBX 10 12 0 0
BITMAP
0F40
1080
3080
3080
3800
1C00
0E00
0700
4300
4300
4200
BC00
ENDCHAR

STARTCHAR afii10055
ENCODING 166
SWIDTH 385 0
DWIDTH 7 0
BBX 6 12 0 0
BITMAP
3C
18
18
18
30
30
30
30
60
60
60
F0
ENDCHAR

STARTCHAR afii10056
ENCODING 167
SWIDTH 385 0
DWIDTH 7 0
BBX 6 14 0 0
BITMAP
14
00
3C
18
18
18
30
30
30
30
60
60
60
F0
ENDCHAR

STARTCHAR afii10057
ENCODING 168
SWIDTH 500 0
DWIDTH 9 0
BBX 9 12 0 0
BITMAP
0780
0300
0300
0300
0600
0600
0600
0600
0C00
CC00
C800
7000
ENDCHAR

STARTCHAR afii10058
ENCODING 169
SWIDTH 957 0
DWIDTH 16 0
BBX 16 12 -1 0
BITMAP
07F8
0230
0230
0230
0460
047E
0463
0463
08C3
08C3
D0C6
61FC
ENDCHAR

STARTCHAR afii10059
ENCODING 170
SWIDTH 984 0
DWIDTH 17 0
BBX 16 12 0 0
BITMAP
3C78
1830
1830
1830
3060
3FFE
3063
3063
60C3
60C3
60C6
F1FC
ENDCHAR

STARTCHAR afii10060
ENCODING 171
SWIDTH 811 0
DWIDTH 14 0
BBX 12 12 1 0
BITMAP
3FE0
4620
8620
0600
0DE0
0E30
0C30
0C30
1860
1860
1860
3CF0
ENDCHAR

STARTCHAR afii10061
ENCODING 172
SWIDTH 713 0
DWIDTH 12 0
BBX 12 15 0 0
BITMAP
0080
0100
0000
3C60
18A0
1900
1900
3200
3C00
3600
3300
6300
6180
60C0
F9F0
ENDCHAR

STARTCHAR hyphen
ENCODING 173
SWIDTH 333 0
DWIDTH 6 0
BBX 4 1 1 3
BITMAP
F0
ENDCHAR

STARTCHAR afii10062
ENCODING 174
SWIDTH 688 0
DWIDTH 12 0
BBX 11 15 2 0
BITMAP
0880
0700
0000
F0E0
6040
6080
3080
3100
3100
1A00
1A00
0C00
C800
D000
6000
ENDCHAR

STARTCHAR afii10145
ENCODING 175
SWIDTH 804 0
DWIDTH 14 0
BBX 14 15 0 -3
BITMAP
3C3C
1818
1818
1818
3030
3030
3030
3030
6060
6060
6060
FFF0
0400
0400
0400
ENDCHAR

STARTCHAR afii10017
ENCODING 176
SWIDTH 719 0
DWIDTH 12 0
BBX 12 12 -1 0
BITMAP
0020
0060
00E0
0160
0260
0260
0460
0FE0
1060
2060
4060
E0F0
ENDCHAR

STARTCHAR afii10018
ENCODING 177
SWIDTH 655 0
DWIDTH 11 0
BBX 11 12 0 0
BITMAP
3FE0
1820
1820
1800
3000
3F00
3180
30C0
60C0
60C0
6180
FF00
ENDCHAR

STARTCHAR afii10019
ENCODING 178
SWIDTH 667 0
DWIDTH 11 0
BBX 10 12 0 0
BITMAP
3F80
18C0
18C0
18C0
3180
3E00
3300
3180
6180
6180
6300
FE00
ENDCHAR

STARTCHAR afii10020
ENCODING 179
SWIDTH 631 0
DWIDTH 11 0
BBX 11 12 0 0
BITMAP
3FE0
1820
1820
1800
3000
3000
3000
3000
6000
6000
6000
F000
ENDCHAR

STARTCHAR afii10021
ENCODING 180
SWIDTH 675 0
DWIDTH 11 0
BBX 13 15 -2 -3
BITMAP
07F8
0230
0230
0230
0460
0460
0460
0860
08C0
10C0
20C0
7FE0
4060
8040
8040
ENDCHAR

STARTCHAR afii10022
ENCODING 181
SWIDTH 667 0
DWIDTH 11 0
BBX 11 12 0 0
BITMAP
3FE0
1820
1820
1800
3100
3F00
3100
3000
6000
6040
6080
FF80
ENDCHAR

STARTCHAR afii10024
ENCODING 182
SWIDTH 947 0
DWIDTH 16 0
BBX 17 12 0 0
BITMAP
18F180
146280
046400
046400
04C800
03F000
0CD800
18CC00
318C00
318C00
618C00
C3C600
ENDCHAR

STARTCHAR afii10025
ENCODING 183
SWIDTH 527 0
DWIDTH 9 0
BBX 8 12 0 0
BITMAP
2E
33
43
03
06
38
06
06
06
06
8C
70
ENDCHAR

STARTCHAR afii10026
ENCODING 184
SWIDTH 805 0
DWIDTH 14 0
BBX 14 12 0 0
BITMAP
3C3C
1818
1838
1858
30B0
3130
3230
3430
6860
7060
6060
F0F0
ENDCHAR

STARTCHAR afii10027
ENCODING 185
SWIDTH 805 0
DWIDTH 14 0
BBX 14 15 0 0
BITMAP
0110
00E0
0000
3C3C
1818
1838
1858
30B0
3130
3230
3430
6860
7060
6060
F0F0
ENDCHAR

STARTCHAR afii10028
ENCODING 186
SWIDTH 713 0
DWIDTH 12 0
BBX 12 12 0 0
BITMAP
3C60
18A0
1900
1900
3200
3C00
3600
3300
6300
6180
60C0
F9F0
ENDCHAR

STARTCHAR afii10029
ENCODING 187
SWIDTH 715 0
DWIDTH 12 0
BBX 13 12 -1 0
BITMAP
07F8
0230
0230
0230
0460
0460
0460
0460
08C0
08C0
D0C0
61E0
ENDCHAR

STARTCHAR afii10030
ENCODING 188
SWIDTH 990 0
DWIDTH 17 0
BBX 17 12 0 0
BITMAP
380380
180700
1C0B00
1C1300
2C1600
262600
264600
264600
468C00
438C00
430C00
E11E00
ENDCHAR

STARTCHAR afii10031
ENCODING 189
SWIDTH 823 0
DWIDTH 14 0
BBX 14 12 0 0
BITMAP
3C3C
1818
1818
1818
3030
3FF0
3030
3030
6060
6060
6060
F0F0
ENDCHAR

STARTCHAR afii10032
ENCODING 190
SWIDTH 771 0
DWIDTH 13 0
BBX 11 12 1 0
BITMAP
0780
18C0
3060
6060
6060
C060
C060
C0C0
C0C0
C180
6300
3C00
ENDCHAR

STARTCHAR afii10033
ENCODING 191
SWIDTH 805 0
DWIDTH 14 0
BBX 14 12 0 0
BITMAP
3FFC
1818
1818
1818
3030
3030
3030
3030
6060
6060
6060
F0F0
ENDCHAR

STARTCHAR afii10034
ENCODING 192
SWIDTH 667 0
DWIDTH 11 0
BBX 10 12 0 0
BITMAP
3F80
18C0
18C0
18C0
3180
3F00
3000
3000
6000
6000
6000
F000
ENDCHAR

STARTCHAR afii10035
ENCODING 193
SWIDTH 719 0
DWIDTH 12 0
BBX 11 12 1 0
BITMAP
07A0
1840
3040
6000
6000
C000
C000
C000
C000
C080
6100
3E00
ENDCHAR

STARTCHAR afii10036
ENCODING 194
SWIDTH 667 0
DWIDTH 11 0
BBX 10 12 1 0
BITMAP
7FC0
8C40
8C40
0C00
1800
1800
1800
1800
3000
3000
3000
7800
ENDCHAR

STARTCHAR afii10037
ENCODING 195
SWIDTH 688 0
DWIDTH 12 0
BBX 11 12 2 0
BITMAP
F0E0
6040
6080
3080
3100
3100
1A00
1A00
0C00
C800
D000
6000
ENDCHAR

STARTCHAR afii10038
ENCODING 196
SWIDTH 796 0
DWIDTH 14 0
BBX 12 12 1 0
BITMAP
0780
0300
1FC0
3320
6630
C630
C630
C660
4CC0
3F80
0C00
1E00
ENDCHAR

STARTCHAR afii10039
ENCODING 197
SWIDTH 719 0
DWIDTH 12 0
BBX 12 12 0 0
BITMAP
3C70
1820
1840
0C80
0D00
0600
0600
0B00
1300
2180
4180
E3C0
ENDCHAR

STARTCHAR afii10040
ENCODING 198
SWIDTH 804 0
DWIDTH 14 0
BBX 14 15 0 -3
BITMAP
3C3C
1818
1818
1818
3030
3030
3030
3030
6060
6060
6060
FFF0
0030
0020
0020
ENDCHAR

STARTCHAR afii10041
ENCODING 199
SWIDTH 727 0
DWIDTH 12 0
BBX 10 12 2 0
BITMAP
F3C0
6180
6180
6180
C300
C700
7B00
0300
0600
0600
0600
0F00
ENDCHAR

STARTCHAR afii10042
ENCODING 200
SWIDTH 1126 0
DWIDTH 19 0
BBX 19 12 0 0
BITMAP
3C79E0
1830C0
1830C0
1830C0
306180
306180
306180
306180
60C300
60C300
60C300
FFFF80
ENDCHAR

STARTCHAR afii10043
ENCODING 201
SWIDTH 1126 0
DWIDTH 19 0
BBX 19 15 0 -3
BITMAP
3C79E0
1830C0
1830C0
1830C0
306180
306180
306180
306180
60C300
60C300
60C300
FFFF80
000180
000100
000100
ENDCHAR

STARTCHAR afii10044
ENCODING 202
SWIDTH 730 0
DWIDTH 12 0
BBX 10 12 1 0
BITMAP
7E00
4C00
8C00
0C00
1800
1F00
1980
18C0
30C0
30C0
3180
7F00
ENDCHAR

STARTCHAR afii10045
ENCODING 203
SWIDTH 964 0
DWIDTH 16 0
BBX 16 12 0 0
BITMAP
3C0F
1806
1806
1806
300C
3F0C
318C
30CC
60D8
60D8
6198
FF3C
ENDCHAR

STARTCHAR afii10046
ENCODING 204
SWIDTH 655 0
DWIDTH 11 0
BBX 10 12 0 0
BITMAP
3C00
1800
1800
1800
3000
3F00
3180
30C0
60C0
60C0
6180
FF00
ENDCHAR

STARTCHAR afii10047
ENCODING 205
SWIDTH 704 0
DWIDTH 12 0
BBX 10 12 1 0
BITMAP
2E00
3180
20C0
00C0
00C0
0FC0
00C0
00C0
0180
8300
4600
3800
ENDCHAR

STARTCHAR afii10048
ENCODING 206
SWIDTH 1106 0
DWIDTH 19 0
BBX 18 12 0 0
BITMAP
3C0F00
183180
1860C0
18C0C0
30C0C0
3F80C0
3180C0
318180
618180
618300
60C600
F07800
ENDCHAR

STARTCHAR afii10049
ENCODING 207
SWIDTH 710 0
DWIDTH 12 0
BBX 12 12 0 0
BITMAP
07F0
0C60
1860
1860
08C0
07C0
0CC0
18C0
1980
3180
6180
E3C0
ENDCHAR

STARTCHAR afii10065
ENCODING 208
SWIDTH 500 0
DWIDTH 9 0
BBX 7 8 1 0
BITMAP
0E
36
66
66
CC
CC
DC
6E
ENDCHAR

STARTCHAR afii10066
ENCODING 209
SWIDTH 507 0
DWIDTH 9 0
BBX 8 12 1 0
BITMAP
01
0E
1C
20
5C
66
C6
C6
C6
C4
C8
70
ENDCHAR

STARTCHAR afii10067
ENCODING 210
SWIDTH 438 0
DWIDTH 7 0
BBX 6 8 1 0
BITMAP
18
2C
58
F0
D8
D8
D0
60
ENDCHAR

STARTCHAR afii10068
ENCODING 211
SWIDTH 406 0
DWIDTH 7 0
BBX 5 8 1 0
BITMAP
30
58
18
30
40
C0
D0
60
ENDCHAR

STARTCHAR afii10069
ENCODING 212
SWIDTH 501 0
DWIDTH 9 0
BBX 7 12 1 0
BITMAP
20
18
0C
06
1E
26
46
C6
C6
C4
C8
70
ENDCHAR

STARTCHAR afii10070
ENCODING 213
SWIDTH 438 0
DWIDTH 7 0
BBX 6 8 1 0
BITMAP
18
2C
4C
F8
C0
C0
C8
70
ENDCHAR

STARTCHAR afii10072
ENCODING 214
SWIDTH 997 0
DWIDTH 17 0
BBX 17 8 0 0
BITMAP
38C300
4CC580
0CC800
0FF800
0D9800
099800
D19900
618E00
ENDCHAR

STARTCHAR afii10073
ENCODING 215
SWIDTH 404 0
DWIDTH 7 0
BBX 6 8 0 0
BITMAP
38
4C
0C
30
18
18
90
60
ENDCHAR

STARTCHAR afii10074
ENCODING 216
SWIDTH 500 0
DWIDTH 8 0
BBX 8 8 0 0
BITMAP
E3
63
63
63
C6
CE
D6
67
ENDCHAR

STARTCHAR afii10075
ENCODING 217
SWIDTH 500 0
DWIDTH 8 0
BBX 8 11 0 0
BITMAP
12
0C
00
E3
63
63
63
C6
CE
D6
67
ENDCHAR

STARTCHAR afii10076
ENCODING 218
SWIDTH 498 0
DWIDTH 9 0
BBX 8 8 0 0
BITMAP
E3
65
68
70
D8
CC
CD
C6
ENDCHAR

STARTCHAR afii10077
ENCODING 219
SWIDTH 454 0
DWIDTH 8 0
BBX 8 8 0 0
BITMAP
3F
13
13
13
26
26
A6
C7
ENDCHAR

STARTCHAR afii10078
ENCODING 220
SWIDTH 655 0
DWIDTH 11 0
BBX 11 8 0 0
BITMAP
3060
1860
18E0
1D60
2EC0
26C0
A4C0
C4E0
ENDCHAR

STARTCHAR afii10079
ENCODING 221
SWIDTH 505 0
DWIDTH 9 0
BBX 9 8 0 0
BITMAP
E180
6180
6180
7F80
C300
C300
C300
C380
ENDCHAR

STARTCHAR afii10080
ENCODING 222
SWIDTH 500 0
DWIDTH 9 0
BBX 7 8 1 0
BITMAP
1C
26
46
C6
C6
C4
C8
70
ENDCHAR

STARTCHAR afii10081
ENCODING 223
SWIDTH 500 0
DWIDTH 8 0
BBX 8 8 0 0
BITMAP
E6
6B
73
63
C6
C6
C6
C7
ENDCHAR

STARTCHAR afii10082
ENCODING 224
SWIDTH 500 0
DWIDTH 9 0
BBX 9 11 -1 -3
BITMAP
3B00
1D80
1980
1980
3180
3100
3200
3C00
6000
6000
F000
ENDCHAR

STARTCHAR afii10083
ENCODING 225
SWIDTH 438 0
DWIDTH 7 0
BBX 6 8 1 0
BITMAP
18
2C
4C
C0
C0
C0
C8
70
ENDCHAR

STARTCHAR afii10084
ENCODING 226
SWIDTH 771 0
DWIDTH 13 0
BBX 13 8 0 0
BITMAP
E630
6B58
7398
6318
C630
C630
C630
C638
ENDCHAR

STARTCHAR afii10085
ENCODING 227
SWIDTH 500 0
DWIDTH 9 0
BBX 9 12 -1 -4
BITMAP
0980
3980
1880
1880
1900
1A00
1A00
1C00
1800
1000
A000
C000
ENDCHAR

STARTCHAR afii10086
ENCODING 228
SWIDTH 704 0
DWIDTH 12 0
BBX 11 15 0 -3
BITMAP
0700
0300
0300
0300
16C0
2F60
4660
C660
CC60
CC40
CC80
7F00
1800
1800
3C00
ENDCHAR

STARTCHAR afii10087
ENCODING 229
SWIDTH 552 0
DWIDTH 9 0
BBX 10 8 -1 0
BITMAP
08C0
3940
1A00
0C00
0C00
1600
A680
C300
ENDCHAR

STARTCHAR afii10088
ENCODING 230
SWIDTH 500 0
DWIDTH 8 0
BBX 8 11 0 -3
BITMAP
E3
63
63
63
C6
CE
D6
67
06
03
0E
ENDCHAR

STARTCHAR afii10089
ENCODING 231
SWIDTH 471 0
DWIDTH 8 0
BBX 7 8 1 0
BITMAP
E6
66
C6
DE
6C
0C
0C
0E
ENDCHAR

STARTCHAR afii10090
ENCODING 232
SWIDTH 756 0
DWIDTH 13 0
BBX 13 8 0 0
BITMAP
E318
6318
6318
6318
C630
CE70
D6B0
6338
ENDCHAR

STARTCHAR afii10091
ENCODING 233
SWIDTH 756 0
DWIDTH 13 0
BBX 13 11 0 -3
BITMAP
E318
6318
6318
6318
C630
CE70
D6B0
6338
0030
0018
0070
ENDCHAR

STARTCHAR afii10092
ENCODING 234
SWIDTH 509 0
DWIDTH 9 0
BBX 8 8 0 0
BITMAP
F8
B0
3E
33
63
63
66
38
ENDCHAR

STARTCHAR afii10093
ENCODING 235
SWIDTH 648 0
DWIDTH 11 0
BBX 10 8 1 0
BITMAP
E1C0
60C0
60C0
78C0
CD80
CD80
C980
71C0
ENDCHAR

STARTCHAR afii10094
ENCODING 236
SWIDTH 441 0
DWIDTH 7 0
BBX 6 8 0 0
BITMAP
E0
60
60
78
CC
CC
C8
70
ENDCHAR

STARTCHAR afii10095
ENCODING 237
SWIDTH 437 0
DWIDTH 7 0
BBX 6 8 0 0
BITMAP
78
4C
0C
3C
0C
88
90
60
ENDCHAR

STARTCHAR afii10096
ENCODING 238
SWIDTH 706 0
DWIDTH 12 0
BBX 11 8 0 0
BITMAP
E1C0
6260
6460
7C60
CC60
CC40
CC80
C700
ENDCHAR

STARTCHAR afii10097
ENCODING 239
SWIDTH 474 0
DWIDTH 8 0
BBX 8 8 0 0
BITMAP
0F
33
33
33
1E
36
66
E7
ENDCHAR

STARTCHAR afii61352
ENCODING 240
SWIDTH 1043 0
DWIDTH 18 0
BBX 17 12 0 0
BITMAP
1C0C00
0C1400
0C2000
0E2300
164580
134D80
134D80
134D80
218D00
218600
A08000
C09F00
ENDCHAR

STARTCHAR afii10071
ENCODING 241
SWIDTH 438 0
DWIDTH 7 0
BBX 6 10 1 0
BITMAP
14
00
18
2C
4C
F8
C0
C0
C8
70
ENDCHAR

STARTCHAR afii10099
ENCODING 242
SWIDTH 485 0
DWIDTH 9 0
BBX 8 15 0 -3
BITMAP
70
30
FC
30
66
6B
73
63
C6
C6
C6
C6
0C
08
10
ENDCHAR

STARTCHAR afii10100
ENCODING 243
SWIDTH 402 0
DWIDTH 7 0
BBX 8 11 -1 0
BITMAP
02
04
00
7F
31
30
30
60
60
60
F0
ENDCHAR

STARTCHAR afii10101
ENCODING 244
SWIDTH 434 0
DWIDTH 7 0
BBX 7 8 1 0
BITMAP
1E
22
40
F0
C0
C0
C8
70
ENDCHAR

STARTCHAR afii10102
ENCODING 245
SWIDTH 385 0
DWIDTH 7 0
BBX 7 8 0 0
BITMAP
3A
64
64
30
18
4C
4C
B8
ENDCHAR

STARTCHAR afii10103
ENCODING 246
SWIDTH 271 0
DWIDTH 5 0
BBX 4 11 1 0
BITMAP
30
30
00
E0
60
60
60
C0
C0
C0
E0
ENDCHAR

STARTCHAR afii10104
ENCODING 247
SWIDTH 271 0
DWIDTH 5 0
BBX 5 10 1 0
BITMAP
48
00
E0
60
60
60
C0
C0
C0
E0
ENDCHAR

STARTCHAR afii10105
ENCODING 248
SWIDTH 271 0
DWIDTH 5 0
BBX 7 15 -2 -4
BITMAP
06
06
00
1C
0C
0C
0C
18
18
18
18
30
30
A0
C0
ENDCHAR

STARTCHAR afii10106
ENCODING 249
SWIDTH 679 0
DWIDTH 12 0
BBX 12 8 -1 0
BITMAP
0380
0580
0980
09E0
1330
1330
A320
C1C0
ENDCHAR

STARTCHAR afii10107
ENCODING 250
SWIDTH 719 0
DWIDTH 12 0
BBX 11 8 0 0
BITMAP
EE00
6600
67C0
7E60
CC60
CC60
CC40
C780
ENDCHAR

STARTCHAR afii10108
ENCODING 251
SWIDTH 500 0
DWIDTH 9 0
BBX 8 12 0 0
BITMAP
70
30
FC
30
66
6B
73
63
C6
C6
C6
C7
ENDCHAR

STARTCHAR afii10109
ENCODING 252
SWIDTH 498 0
DWIDTH 9 0
BBX 8 11 0 0
BITMAP
04
08
00
E3
65
68
70
D8
CC
CD
C6
ENDCHAR

STARTCHAR section
ENCODING 253
SWIDTH 521 0
DWIDTH 10 0
BBX 8 16 1 -4
BITMAP
06
0B
1B
18
08
38
64
66
66
26
1C
10
18
D8
D0
60
ENDCHAR

STARTCHAR afii10110
ENCODING 254
SWIDTH 500 0
DWIDTH 9 0
BBX 9 15 -1 -4
BITMAP
0480
0700
0000
0980
3980
1880
1880
1900
1A00
1A00
1C00
1800
1000
A000
C000
ENDCHAR

STARTCHAR afii10193
ENCODING 255
SWIDTH 500 0
DWIDTH 8 0
BBX 8 11 0 -3
BITMAP
E3
63
63
63
C6
CE
D6
67
60
30
E0
ENDCHAR
ENDFONT
